<svg xmlns="http://www.w3.org/2000/svg" width="24" height="24" viewBox="0 0 24 24" fill="none">
  <path d="M22 11V9C22 4 20 2 15 2H9C4 2 2 4 2 9V15C2 20 4 22 9 22H10" stroke="#ABB4C5" stroke-width="1.5" stroke-linecap="round" stroke-linejoin="round"/>
  <path d="M2.0293 8.5H21.9993" stroke="#ABB4C5" stroke-width="1.5" stroke-linecap="round" stroke-linejoin="round"/>
  <path d="M2.0293 15.5H11.9993" stroke="#ABB4C5" stroke-width="1.5" stroke-linecap="round" stroke-linejoin="round"/>
  <path d="M8.50977 21.99V2.01001" stroke="#ABB4C5" stroke-width="1.5" stroke-linecap="round" stroke-linejoin="round"/>
  <path d="M15.5098 11.99V2.01001" stroke="#ABB4C5" stroke-width="1.5" stroke-linecap="round" stroke-linejoin="round"/>
  <path d="M18.7295 14.6701L14.5796 18.82C14.4196 18.98 14.2695 19.29 14.2295 19.51L13.9996 21.1C13.9196 21.67 14.3196 22.08 14.8896 21.99L16.4795 21.76C16.6995 21.73 17.0095 21.5701 17.1695 21.4101L21.3196 17.26C22.0296 16.55 22.3696 15.7101 21.3196 14.6601C20.2796 13.6201 19.4495 13.9501 18.7295 14.6701Z" stroke="#ABB4C5" stroke-width="1.5" stroke-miterlimit="10" stroke-linecap="round" stroke-linejoin="round"/>
  <path d="M18.1396 15.26C18.4896 16.52 19.4796 17.5 20.7396 17.86" stroke="#ABB4C5" stroke-width="1.5" stroke-miterlimit="10" stroke-linecap="round" stroke-linejoin="round"/>
</svg>